<svg width="48" height="48" viewBox="0 0 48 48" fill="none" xmlns="http://www.w3.org/2000/svg">
<path fill-rule="evenodd" clip-rule="evenodd" d="M19.4062 12C19.4062 9.46294 21.4629 7.40625 23.9999 7.40625C26.537 7.40625 28.5937 9.46294 28.5937 12V12.5937H19.4062V12ZM16.5937 15.4062V18C16.5937 18.7767 17.2233 19.4062 17.9999 19.4062C18.7766 19.4062 19.4062 18.7767 19.4062 18V15.4062H28.5937V18C28.5937 18.7767 29.2233 19.4062 29.9999 19.4062C30.7766 19.4062 31.4062 18.7767 31.4062 18V15.4062H34.6977L36.4814 38.5937H11.5185L13.3022 15.4062H16.5937ZM16.5937 12.5937V12C16.5937 7.90964 19.9096 4.59375 23.9999 4.59375C28.0903 4.59375 31.4062 7.90964 31.4062 12V12.5937H35.9999C36.7348 12.5937 37.3457 13.1595 37.402 13.8921L39.402 39.8921C39.4321 40.2827 39.2979 40.6681 39.0317 40.9555C38.7656 41.2429 38.3916 41.4062 37.9999 41.4062H9.99994C9.60824 41.4062 9.23429 41.2429 8.96815 40.9555C8.702 40.6681 8.56779 40.2827 8.59784 39.8921L10.5978 13.8921C10.6542 13.1595 11.2651 12.5937 11.9999 12.5937H16.5937Z" fill="black"/>
</svg>
