<svg width="48" height="48" viewBox="0 0 48 48" fill="none" xmlns="http://www.w3.org/2000/svg">
<path fill-rule="evenodd" clip-rule="evenodd" d="M24.7033 4.78209C24.1967 4.48916 23.5488 4.53799 23.0893 4.92855C23.0893 4.92856 23.0893 4.92855 23.0893 4.92855L9.0893 16.8286L3.08927 21.9286C2.49751 22.4315 2.42555 23.319 2.92855 23.9108C3.43155 24.5025 4.31902 24.5745 4.91078 24.0715L8.5938 20.9409V38C8.5938 39.8812 10.1188 41.4063 12.0001 41.4063H36C37.8813 41.4063 39.4063 39.8812 39.4063 38V20.941L43.0893 24.0715C43.681 24.5745 44.5685 24.5025 45.0715 23.9108C45.5745 23.319 45.5025 22.4315 44.9108 21.9286L38.9153 16.8324C38.9138 16.8311 38.9123 16.8298 38.9108 16.8286L24.9108 4.92855L24.9108 4.92855C24.8451 4.87276 24.7757 4.82393 24.7033 4.78209ZM36.5938 18.5503L24 7.84565L11.4063 18.5503V38C11.4063 38.3279 11.6721 38.5938 12.0001 38.5938H36C36.328 38.5938 36.5938 38.3279 36.5938 38V18.5503Z" fill="black"/>
</svg>
