<svg width="48" height="48" viewBox="0 0 48 48" fill="none" xmlns="http://www.w3.org/2000/svg">
<path fill-rule="evenodd" clip-rule="evenodd" d="M9.00562 5.00558C9.26938 4.74185 9.6271 4.59371 10.0001 4.59375L20.557 4.59489C20.5851 4.59489 20.613 4.59572 20.6406 4.59735C21.5913 4.60138 22.5371 4.67422 23.4432 4.83851C27.8691 5.45622 31.5874 7.23806 34.3317 10.0662C37.3817 13.2094 39.1134 17.5263 39.3695 22.6532C39.3887 22.8806 39.3996 23.1087 39.4022 23.3371C39.4048 23.3724 39.4062 23.4081 39.4062 23.4441V42C39.4062 42.7766 38.7766 43.4062 37.9999 43.4062H9.99994C9.22329 43.4062 8.59369 42.7766 8.59369 42V6C8.59369 5.62701 8.74187 5.2693 9.00562 5.00558ZM36.5937 24.0988C36.5914 24.0661 36.5903 24.0332 36.5903 24C36.5903 23.6094 36.5812 23.2251 36.5633 22.8471C36.5484 22.6832 36.5273 22.5198 36.5002 22.3573C36.1578 20.3072 35.5172 18.8109 34.6403 17.9166C33.8376 17.098 32.6994 16.6409 30.9104 16.9397L28.2316 17.387C27.7835 17.4619 27.3268 17.3156 27.0056 16.9944C26.6843 16.6731 26.5381 16.2165 26.6129 15.7684L27.0603 13.0895C27.1202 12.7306 27.1503 12.3673 27.1503 12.0034C27.1503 10.2442 26.474 9.19793 25.4432 8.52313C24.7997 8.10184 23.9711 7.79754 22.9891 7.61461C22.2011 7.50729 21.3814 7.44079 20.5306 7.41708L19.9806 7.40954C19.9598 7.40925 19.939 7.40851 19.9183 7.40732L11.4062 7.4064V40.5937H36.5937V24.0988ZM29.707 9.93C29.8749 10.5651 29.9628 11.2564 29.9628 12.0034C29.9628 12.5225 29.9199 13.0408 29.8343 13.5528L29.7115 14.2885L30.4471 14.1656C31.815 13.9372 33.0504 14.0148 34.1377 14.3728C33.6066 13.5121 32.9962 12.7285 32.3132 12.0248C31.5457 11.2338 30.6758 10.5324 29.707 9.93ZM14.5937 14C14.5937 13.2233 15.2233 12.5937 15.9999 12.5937H21.9999C22.7766 12.5937 23.4062 13.2233 23.4062 14C23.4062 14.7766 22.7766 15.4062 21.9999 15.4062H15.9999C15.2233 15.4062 14.5937 14.7766 14.5937 14ZM14.5937 22C14.5937 21.2233 15.2233 20.5937 15.9999 20.5937H31.9999C32.7766 20.5937 33.4062 21.2233 33.4062 22C33.4062 22.7766 32.7766 23.4062 31.9999 23.4062H15.9999C15.2233 23.4062 14.5937 22.7766 14.5937 22ZM14.5937 28C14.5937 27.2233 15.2233 26.5937 15.9999 26.5937H31.9999C32.7766 26.5937 33.4062 27.2233 33.4062 28C33.4062 28.7766 32.7766 29.4062 31.9999 29.4062H15.9999C15.2233 29.4062 14.5937 28.7766 14.5937 28ZM14.5937 34C14.5937 33.2233 15.2233 32.5937 15.9999 32.5937H31.9999C32.7766 32.5937 33.4062 33.2233 33.4062 34C33.4062 34.7766 32.7766 35.4062 31.9999 35.4062H15.9999C15.2233 35.4062 14.5937 34.7766 14.5937 34Z" fill="black"/>
</svg>
