<svg width="48" height="48" viewBox="0 0 48 48" fill="none" xmlns="http://www.w3.org/2000/svg">
<path fill-rule="evenodd" clip-rule="evenodd" d="M17.4062 14C17.4062 10.3584 20.3583 7.40628 24 7.40628C27.6416 7.40628 30.5937 10.3584 30.5937 14C30.5937 17.6417 27.6416 20.5938 24 20.5938C20.3583 20.5938 17.4062 17.6417 17.4062 14ZM24 4.59378C18.805 4.59378 14.5937 8.8051 14.5937 14C14.5937 19.195 18.805 23.4063 24 23.4063C29.1949 23.4063 33.4062 19.195 33.4062 14C33.4062 8.8051 29.1949 4.59378 24 4.59378ZM11.4062 36.6667C11.4062 33.7276 13.7201 31.4063 16.4999 31.4063H31.4999C34.2798 31.4063 36.5937 33.7276 36.5937 36.6667V38.5938H11.4062V36.6667ZM16.4999 28.5938C12.1001 28.5938 8.59369 32.2419 8.59369 36.6667V40C8.59369 40.7767 9.22329 41.4063 9.99994 41.4063H37.9999C38.7766 41.4063 39.4062 40.7767 39.4062 40V36.6667C39.4062 32.2419 35.8998 28.5938 31.4999 28.5938H16.4999Z" fill="black"/>
</svg>
